{
    "asset" : {
        "generator" : "Khronos glTF Blender I/O v0.9.36",
        "version" : "2.0"
    },
    "scene" : 0,
    "scenes" : [
        {
            "name" : "Scene",
            "nodes" : [
                5,
                6,
                7,
                8,
                9,
                10,
                11,
                13
            ]
        }
    ],
    "nodes" : [
        {
            "mesh" : 0,
            "name" : "BackPlane",
            "translation" : [
                0,
                1,
                0
            ]
        },
        {
            "mesh" : 1,
            "name" : "BottomPlane",
            "translation" : [
                0,
                1,
                0
            ]
        },
        {
            "mesh" : 2,
            "name" : "LeftPlane",
            "translation" : [
                0,
                1,
                0
            ]
        },
        {
            "mesh" : 3,
            "name" : "RightPlane",
            "translation" : [
                0,
                1,
                0
            ]
        },
        {
            "mesh" : 4,
            "name" : "TopPlane",
            "translation" : [
                0,
                1,
                0
            ]
        },
        {
            "children" : [
                0,
                1,
                2,
                3,
                4
            ],
            "name" : "Walls"
        },
        {
            "mesh" : 5,
            "name" : "StanfordBunny",
            "rotation" : [
                0.6408563852310181,
                0.29883623123168945,
                -0.29883626103401184,
                0.6408563852310181
            ],
            "scale" : [
                5,
                5,
                5
            ],
            "translation" : [
                0.19537878036499023,
                -0.17323708534240723,
                -0.6908832788467407
            ]
        },
        {
            "mesh" : 6,
            "name" : "Sphere",
            "scale" : [
                0.3499999940395355,
                0.3499999940395355,
                0.3499999940395355
            ],
            "translation" : [
                -0.448301762342453,
                0.3499999940395355,
                -0.02330365777015686
            ]
        },
        {
            "mesh" : 7,
            "name" : "Cuboid",
            "rotation" : [
                0,
                0.3826834559440613,
                0,
                0.9238795042037964
            ],
            "scale" : [
                0.20000000298023224,
                0.4000000059604645,
                0.20000000298023224
            ],
            "translation" : [
                0.05431129038333893,
                0.4000000059604645,
                0.550881028175354
            ]
        },
        {
            "mesh" : 8,
            "name" : "LightFrame",
            "scale" : [
                0.5,
                0.019999999552965164,
                0.5
            ],
            "translation" : [
                0,
                1.9800000190734863,
                0
            ]
        },
        {
            "mesh" : 9,
            "name" : "Light",
            "scale" : [
                -0.5027487874031067,
                0.019999999552965164,
                0.5272051095962524
            ],
            "translation" : [
                0,
                1.9800000190734863,
                0
            ]
        },
        {
            "mesh" : 10,
            "name" : "Cube",
            "scale" : [
                0.031734774336218834,
                0.99,
                0.19774097204208374
            ],
            "translation" : [
                0.6583273410797119,
                1,
                -0.5729418992996216
            ]
        },
        {
            "camera" : 0,
            "name" : "Camera_Orientation",
            "rotation" : [
                -0.7071067690849304,
                0,
                0,
                0.7071067690849304
            ]
        },
        {
            "children" : [
                12
            ],
            "name" : "Camera",
            "rotation" : [
                0.5,
                0.5,
                -0.5,
                0.4999999701976776
            ],
            "translation" : [
                6,
                1,
                0
            ]
        }
    ],
    "cameras" : [
        {
            "name" : "Camera",
            "perspective" : {
                "yfov" : 0.39959652046304894,
                "zfar" : 100,
                "znear" : 0.10000000149011612
            },
            "type" : "perspective"
        }
    ],
    "materials" : [
        {
            "doubleSided" : true,
            "name" : "White",
            "pbrMetallicRoughness" : {
                "baseColorFactor" : [
                    0.800000011920929,
                    0.800000011920929,
                    0.800000011920929,
                    1
                ],
                "metallicFactor" : 0,
                "roughnessFactor" : 0.1111111044883728
            }
        },
        {
            "doubleSided" : true,
            "name" : "Green",
            "pbrMetallicRoughness" : {
                "baseColorFactor" : [
                    0.027613643556833267,
                    0.7874122262001038,
                    0.027210915461182594,
                    1
                ],
                "metallicFactor" : 1,
                "roughnessFactor" : 0.1
            }
        },
        {
            "doubleSided" : true,
            "name" : "Red",
            "pbrMetallicRoughness" : {
                "baseColorFactor" : [
                    0.7874122262001038,
                    0.027210915461182594,
                    0.027210915461182594,
                    1
                ],
                "metallicFactor" : 0,
                "roughnessFactor" : 0.1
            }
        },
        {
            "doubleSided" : true,
            "name" : "Mirror",
            "pbrMetallicRoughness" : {
                "baseColorFactor" : [
                    1,
                    1,
                    1,
                    1
                ],
                "metallicFactor" : 0,
                "roughnessFactor" : 0.2
            },
                          "extensions": {
                                 "ADOBE_materials_thin_transparency": {
                                   "transmissionFactor": 1.0,
                                   "ior": 1.8
                                 }
                              }
        },
        {
            "doubleSided" : true,
            "emissiveFactor" : [
                5,
                5,
                5
            ],
            "name" : "EmissiveWhite",
            "pbrMetallicRoughness" : {}
        },
        {
            "doubleSided" : true,
            "name" : "Material",
            "pbrMetallicRoughness" : {
                "baseColorFactor" : [
                    0.788,
                    0.898,
                    0.992,
                    1
                ],
                "metallicFactor" : 0,
                "roughnessFactor" : 0.20000000298023224
            },
             "extensions": {
                    "ADOBE_materials_thin_transparency": {
                      "transmissionFactor": 1.0,
                      "ior": 1.5
                    }
                 }
        }
    ],
    "meshes" : [
        {
            "name" : "BackPlane",
            "primitives" : [
                {
                    "attributes" : {
                        "POSITION" : 0,
                        "NORMAL" : 1,
                        "TEXCOORD_0" : 2
                    },
                    "indices" : 3,
                    "material" : 0
                }
            ]
        },
        {
            "name" : "BottomPlane",
            "primitives" : [
                {
                    "attributes" : {
                        "POSITION" : 4,
                        "NORMAL" : 5,
                        "TEXCOORD_0" : 6
                    },
                    "indices" : 3,
                    "material" : 0
                }
            ]
        },
        {
            "name" : "LeftPlane",
            "primitives" : [
                {
                    "attributes" : {
                        "POSITION" : 7,
                        "NORMAL" : 8,
                        "TEXCOORD_0" : 9,
                        "COLOR_0" : 10
                    },
                    "indices" : 3,
                    "material" : 1
                }
            ]
        },
        {
            "name" : "RightPlane",
            "primitives" : [
                {
                    "attributes" : {
                        "POSITION" : 11,
                        "NORMAL" : 12,
                        "TEXCOORD_0" : 13
                    },
                    "indices" : 3,
                    "material" : 2
                }
            ]
        },
        {
            "name" : "TopPlane",
            "primitives" : [
                {
                    "attributes" : {
                        "POSITION" : 14,
                        "NORMAL" : 15,
                        "TEXCOORD_0" : 16
                    },
                    "indices" : 3,
                    "material" : 0
                }
            ]
        },
        {
            "name" : "bunny",
            "primitives" : [
                {
                    "attributes" : {
                        "POSITION" : 17,
                        "NORMAL" : 18
                    },
                    "indices" : 19,
                    "material" : 0
                }
            ]
        },
        {
            "name" : "Sphere",
            "primitives" : [
                {
                    "attributes" : {
                        "POSITION" : 20,
                        "NORMAL" : 21,
                        "TEXCOORD_0" : 22
                    },
                    "indices" : 23,
                    "material" : 3
                }
            ]
        },
        {
            "name" : "Cuboid",
            "primitives" : [
                {
                    "attributes" : {
                        "POSITION" : 24,
                        "NORMAL" : 25,
                        "TEXCOORD_0" : 26
                    },
                    "indices" : 27,
                    "material" : 0
                }
            ]
        },
        {
            "name" : "Frame",
            "primitives" : [
                {
                    "attributes" : {
                        "POSITION" : 28,
                        "NORMAL" : 29,
                        "TEXCOORD_0" : 30
                    },
                    "indices" : 31,
                    "material" : 0
                }
            ]
        },
        {
            "name" : "Light.001",
            "primitives" : [
                {
                    "attributes" : {
                        "POSITION" : 32,
                        "NORMAL" : 33,
                        "TEXCOORD_0" : 34
                    },
                    "indices" : 3,
                    "material" : 4
                }
            ]
        },
        {
            "name" : "Cube",
            "primitives" : [
                {
                    "attributes" : {
                        "POSITION" : 35,
                        "NORMAL" : 36,
                        "TEXCOORD_0" : 37
                    },
                    "indices" : 27,
                    "material" : 5
                }
            ]
        }
    ],
    "accessors" : [
        {
            "bufferView" : 0,
            "componentType" : 5126,
            "count" : 4,
            "max" : [
                -1,
                1,
                1
            ],
            "min" : [
                -1,
                -1,
                -1
            ],
            "type" : "VEC3"
        },
        {
            "bufferView" : 1,
            "componentType" : 5126,
            "count" : 4,
            "type" : "VEC3"
        },
        {
            "bufferView" : 2,
            "componentType" : 5126,
            "count" : 4,
            "type" : "VEC2"
        },
        {
            "bufferView" : 3,
            "componentType" : 5123,
            "count" : 6,
            "type" : "SCALAR"
        },
        {
            "bufferView" : 4,
            "componentType" : 5126,
            "count" : 4,
            "max" : [
                1,
                -1,
                1
            ],
            "min" : [
                -1,
                -1,
                -1
            ],
            "type" : "VEC3"
        },
        {
            "bufferView" : 5,
            "componentType" : 5126,
            "count" : 4,
            "type" : "VEC3"
        },
        {
            "bufferView" : 6,
            "componentType" : 5126,
            "count" : 4,
            "type" : "VEC2"
        },
        {
            "bufferView" : 7,
            "componentType" : 5126,
            "count" : 4,
            "max" : [
                1,
                1,
                1
            ],
            "min" : [
                -1,
                -1,
                1
            ],
            "type" : "VEC3"
        },
        {
            "bufferView" : 8,
            "componentType" : 5126,
            "count" : 4,
            "type" : "VEC3"
        },
        {
            "bufferView" : 9,
            "componentType" : 5126,
            "count" : 4,
            "type" : "VEC2"
        },
        {
            "bufferView" : 10,
            "componentType" : 5126,
            "count" : 4,
            "type" : "VEC4"
        },
        {
            "bufferView" : 11,
            "componentType" : 5126,
            "count" : 4,
            "max" : [
                1,
                1,
                -1
            ],
            "min" : [
                -1,
                -1,
                -1
            ],
            "type" : "VEC3"
        },
        {
            "bufferView" : 12,
            "componentType" : 5126,
            "count" : 4,
            "type" : "VEC3"
        },
        {
            "bufferView" : 13,
            "componentType" : 5126,
            "count" : 4,
            "type" : "VEC2"
        },
        {
            "bufferView" : 14,
            "componentType" : 5126,
            "count" : 4,
            "max" : [
                1,
                1,
                1
            ],
            "min" : [
                -1,
                1,
                -1
            ],
            "type" : "VEC3"
        },
        {
            "bufferView" : 15,
            "componentType" : 5126,
            "count" : 4,
            "type" : "VEC3"
        },
        {
            "bufferView" : 16,
            "componentType" : 5126,
            "count" : 4,
            "type" : "VEC2"
        },
        {
            "bufferView" : 17,
            "componentType" : 5126,
            "count" : 2503,
            "max" : [
                0.06077880039811134,
                0.05871463939547539,
                -0.033309899270534515
            ],
            "min" : [
                -0.09438042342662811,
                -0.0616791695356369,
                -0.18699601292610168
            ],
            "type" : "VEC3"
        },
        {
            "bufferView" : 18,
            "componentType" : 5126,
            "count" : 2503,
            "type" : "VEC3"
        },
        {
            "bufferView" : 19,
            "componentType" : 5123,
            "count" : 14904,
            "type" : "SCALAR"
        },
        {
            "bufferView" : 20,
            "componentType" : 5126,
            "count" : 5027,
            "max" : [
                0.9830741882324219,
                0.9948669075965881,
                0.9830744862556458
            ],
            "min" : [
                -0.9830738306045532,
                -0.9948669672012329,
                -0.9830741286277771
            ],
            "type" : "VEC3"
        },
        {
            "bufferView" : 21,
            "componentType" : 5126,
            "count" : 5027,
            "type" : "VEC3"
        },
        {
            "bufferView" : 22,
            "componentType" : 5126,
            "count" : 5027,
            "type" : "VEC2"
        },
        {
            "bufferView" : 23,
            "componentType" : 5123,
            "count" : 23808,
            "type" : "SCALAR"
        },
        {
            "bufferView" : 24,
            "componentType" : 5126,
            "count" : 24,
            "max" : [
                1,
                1,
                1
            ],
            "min" : [
                -1,
                -1,
                -1
            ],
            "type" : "VEC3"
        },
        {
            "bufferView" : 25,
            "componentType" : 5126,
            "count" : 24,
            "type" : "VEC3"
        },
        {
            "bufferView" : 26,
            "componentType" : 5126,
            "count" : 24,
            "type" : "VEC2"
        },
        {
            "bufferView" : 27,
            "componentType" : 5123,
            "count" : 36,
            "type" : "SCALAR"
        },
        {
            "bufferView" : 28,
            "componentType" : 5126,
            "count" : 32,
            "max" : [
                1,
                1,
                1
            ],
            "min" : [
                -1,
                -1,
                -1
            ],
            "type" : "VEC3"
        },
        {
            "bufferView" : 29,
            "componentType" : 5126,
            "count" : 32,
            "type" : "VEC3"
        },
        {
            "bufferView" : 30,
            "componentType" : 5126,
            "count" : 32,
            "type" : "VEC2"
        },
        {
            "bufferView" : 31,
            "componentType" : 5123,
            "count" : 48,
            "type" : "SCALAR"
        },
        {
            "bufferView" : 32,
            "componentType" : 5126,
            "count" : 4,
            "max" : [
                0.9051275253295898,
                -1,
                0.9051275253295898
            ],
            "min" : [
                -0.9051275253295898,
                -1,
                -0.9051275253295898
            ],
            "type" : "VEC3"
        },
        {
            "bufferView" : 33,
            "componentType" : 5126,
            "count" : 4,
            "type" : "VEC3"
        },
        {
            "bufferView" : 34,
            "componentType" : 5126,
            "count" : 4,
            "type" : "VEC2"
        },
        {
            "bufferView" : 35,
            "componentType" : 5126,
            "count" : 24,
            "max" : [
                1,
                1,
                1
            ],
            "min" : [
                -1,
                -1,
                -1
            ],
            "type" : "VEC3"
        },
        {
            "bufferView" : 36,
            "componentType" : 5126,
            "count" : 24,
            "type" : "VEC3"
        },
        {
            "bufferView" : 37,
            "componentType" : 5126,
            "count" : 24,
            "type" : "VEC2"
        }
    ],
    "bufferViews" : [
        {
            "buffer" : 0,
            "byteLength" : 48,
            "byteOffset" : 0
        },
        {
            "buffer" : 0,
            "byteLength" : 48,
            "byteOffset" : 48
        },
        {
            "buffer" : 0,
            "byteLength" : 32,
            "byteOffset" : 96
        },
        {
            "buffer" : 0,
            "byteLength" : 12,
            "byteOffset" : 128
        },
        {
            "buffer" : 0,
            "byteLength" : 48,
            "byteOffset" : 140
        },
        {
            "buffer" : 0,
            "byteLength" : 48,
            "byteOffset" : 188
        },
        {
            "buffer" : 0,
            "byteLength" : 32,
            "byteOffset" : 236
        },
        {
            "buffer" : 0,
            "byteLength" : 48,
            "byteOffset" : 268
        },
        {
            "buffer" : 0,
            "byteLength" : 48,
            "byteOffset" : 316
        },
        {
            "buffer" : 0,
            "byteLength" : 32,
            "byteOffset" : 364
        },
        {
            "buffer" : 0,
            "byteLength" : 64,
            "byteOffset" : 396
        },
        {
            "buffer" : 0,
            "byteLength" : 48,
            "byteOffset" : 460
        },
        {
            "buffer" : 0,
            "byteLength" : 48,
            "byteOffset" : 508
        },
        {
            "buffer" : 0,
            "byteLength" : 32,
            "byteOffset" : 556
        },
        {
            "buffer" : 0,
            "byteLength" : 48,
            "byteOffset" : 588
        },
        {
            "buffer" : 0,
            "byteLength" : 48,
            "byteOffset" : 636
        },
        {
            "buffer" : 0,
            "byteLength" : 32,
            "byteOffset" : 684
        },
        {
            "buffer" : 0,
            "byteLength" : 30036,
            "byteOffset" : 716
        },
        {
            "buffer" : 0,
            "byteLength" : 30036,
            "byteOffset" : 30752
        },
        {
            "buffer" : 0,
            "byteLength" : 29808,
            "byteOffset" : 60788
        },
        {
            "buffer" : 0,
            "byteLength" : 60324,
            "byteOffset" : 90596
        },
        {
            "buffer" : 0,
            "byteLength" : 60324,
            "byteOffset" : 150920
        },
        {
            "buffer" : 0,
            "byteLength" : 40216,
            "byteOffset" : 211244
        },
        {
            "buffer" : 0,
            "byteLength" : 47616,
            "byteOffset" : 251460
        },
        {
            "buffer" : 0,
            "byteLength" : 288,
            "byteOffset" : 299076
        },
        {
            "buffer" : 0,
            "byteLength" : 288,
            "byteOffset" : 299364
        },
        {
            "buffer" : 0,
            "byteLength" : 192,
            "byteOffset" : 299652
        },
        {
            "buffer" : 0,
            "byteLength" : 72,
            "byteOffset" : 299844
        },
        {
            "buffer" : 0,
            "byteLength" : 384,
            "byteOffset" : 299916
        },
        {
            "buffer" : 0,
            "byteLength" : 384,
            "byteOffset" : 300300
        },
        {
            "buffer" : 0,
            "byteLength" : 256,
            "byteOffset" : 300684
        },
        {
            "buffer" : 0,
            "byteLength" : 96,
            "byteOffset" : 300940
        },
        {
            "buffer" : 0,
            "byteLength" : 48,
            "byteOffset" : 301036
        },
        {
            "buffer" : 0,
            "byteLength" : 48,
            "byteOffset" : 301084
        },
        {
            "buffer" : 0,
            "byteLength" : 32,
            "byteOffset" : 301132
        },
        {
            "buffer" : 0,
            "byteLength" : 288,
            "byteOffset" : 301164
        },
        {
            "buffer" : 0,
            "byteLength" : 288,
            "byteOffset" : 301452
        },
        {
            "buffer" : 0,
            "byteLength" : 192,
            "byteOffset" : 301740
        }
    ],
    "buffers" : [
        {
            "byteLength" : 301932,
            "uri" : "cornell_box.bin"
        }
    ]
}
