{
  "accessors": [
    {
      "bufferView": 1,
      "componentType": 5126,
      "count": 4,
      "max": [
        343,
        -227,
        548
      ],
      "min": [
        213,
        -332,
        548
      ],
      "type": "VEC3"
    },
    {
      "bufferView": 1,
      "byteOffset": 48,
      "componentType": 5126,
      "count": 4,
      "max": [
        0,
        0,
        -1
      ],
      "min": [
        0,
        0,
        -1
      ],
      "type": "VEC3"
    },
    {
      "bufferView": 0,
      "componentType": 5125,
      "count": 6,
      "max": [
        3
      ],
      "min": [
        0
      ],
      "type": "SCALAR"
    },
    {
      "bufferView": 1,
      "byteOffset": 96,
      "componentType": 5126,
      "count": 4,
      "max": [
        556,
        -0,
        548.79998779296875
      ],
      "min": [
        549.5999755859375,
        -559.20001220703125,
        0
      ],
      "type": "VEC3"
    },
    {
      "bufferView": 1,
      "byteOffset": 144,
      "componentType": 5126,
      "count": 4,
      "max": [
        -0.99991565942764282,
        0.0057219993323087692,
        0.011660869233310223
      ],
      "min": [
        -0.99998301267623901,
        0,
        0.005830827634781599
      ],
      "type": "VEC3"
    },
    {
      "bufferView": 0,
      "byteOffset": 24,
      "componentType": 5125,
      "count": 6,
      "max": [
        3
      ],
      "min": [
        0
      ],
      "type": "SCALAR"
    },
    {
      "bufferView": 1,
      "byteOffset": 192,
      "componentType": 5126,
      "count": 12,
      "max": [
        423,
        -0,
        548.79998779296875
      ],
      "min": [
        0,
        -559.20001220703125,
        0
      ],
      "type": "VEC3"
    },
    {
      "bufferView": 1,
      "byteOffset": 336,
      "componentType": 5126,
      "count": 12,
      "max": [
        0.99999994039535522,
        0.95512306690216064,
        0
      ],
      "min": [
        -0.9561658501625061,
        -0.29282578825950623,
        0
      ],
      "type": "VEC3"
    },
    {
      "bufferView": 0,
      "byteOffset": 48,
      "componentType": 5125,
      "count": 18,
      "max": [
        11
      ],
      "min": [
        0
      ],
      "type": "SCALAR"
    },
    {
      "bufferView": 1,
      "byteOffset": 480,
      "componentType": 5126,
      "count": 52,
      "max": [
        556,
        -0,
        548.79998779296875
      ],
      "min": [
        0,
        -559.20001220703125,
        0
      ],
      "type": "VEC3"
    },
    {
      "bufferView": 1,
      "byteOffset": 1104,
      "componentType": 5126,
      "count": 52,
      "max": [
        0.95564895868301392,
        1,
        1
      ],
      "min": [
        -0.95782625675201416,
        -0.95849150419235229,
        -1
      ],
      "type": "VEC3"
    },
    {
      "bufferView": 0,
      "byteOffset": 120,
      "componentType": 5125,
      "count": 78,
      "max": [
        51
      ],
      "min": [
        0
      ],
      "type": "SCALAR"
    }
  ],
  "asset": {
    "extras": {
      "author": "Paul (Sketchfab) (https://sketchfab.com/paul_sketch)",
      "license": "CC-BY-4.0 (http://creativecommons.org/licenses/by/4.0/)",
      "source": "https://sketchfab.com/models/c8f4a0d61eb44077a9cd6330c51affc4",
      "title": "Cornell Box"
    },
    "generator": "Sketchfab-4.1.5",
    "version": "2.0"
  },
  "bufferViews": [
    {
      "buffer": 0,
      "byteLength": 432,
      "byteOffset": 0,
      "name": "floatBufferViews",
      "target": 34963
    },
    {
      "buffer": 0,
      "byteLength": 1728,
      "byteOffset": 432,
      "byteStride": 12,
      "name": "floatBufferViews",
      "target": 34962
    }
  ],
  "buffers": [
    {
      "byteLength": 2160,
      "uri": "scene.bin"
    }
  ],
  "materials": [
    {
      "doubleSided": false,
      "name": "green",
      "pbrMetallicRoughness": {
        "baseColorFactor": [
          0,
          1,
          0,
          1
        ],
        "metallicFactor": 0.14715909090000001,
        "roughnessFactor": 0.61382575760000002
      }
    },
    {
      "alphaMode": "BLEND",
      "doubleSided": false,
      "emissiveFactor": [
        0,
        0,
        0
      ],
      "name": "light",
      "pbrMetallicRoughness": {
        "baseColorFactor": [
          1,
          1,
          1,
          0
        ],
        "metallicFactor": 0,
        "roughnessFactor": 1
      }
    },
    {
      "doubleSided": false,
      "name": "material",
      "pbrMetallicRoughness": {
        "baseColorFactor": [
          1,
          0,
          0,
          1
        ],
        "metallicFactor": 0.49867424240000002,
        "roughnessFactor": 0.45018939390000001
      }
    },
    {
      "doubleSided": false,
      "name": "white",
      "pbrMetallicRoughness": {
        "baseColorFactor": [
          1,
          1,
          1,
          1
        ],
        "metallicFactor": 0.53503787879999998,
        "roughnessFactor": 0.46231060610000002
      }
    }
  ],
  "meshes": [
    {
      "primitives": [
        {
          "attributes": {
            "NORMAL": 1,
            "POSITION": 0
          },
          "indices": 2,
          "material": 1,
          "mode": 4
        }
      ]
    },
    {
      "primitives": [
        {
          "attributes": {
            "NORMAL": 4,
            "POSITION": 3
          },
          "indices": 5,
          "material": 2,
          "mode": 4
        }
      ]
    },
    {
      "primitives": [
        {
          "attributes": {
            "NORMAL": 7,
            "POSITION": 6
          },
          "indices": 8,
          "material": 0,
          "mode": 4
        }
      ]
    },
    {
      "primitives": [
        {
          "attributes": {
            "NORMAL": 10,
            "POSITION": 9
          },
          "indices": 11,
          "material": 3,
          "mode": 4
        }
      ]
    }
  ],
  "nodes": [
    {
      "children": [
        1
      ],
      "name": "RootNode (gltf orientation matrix)",
      "rotation": [
        -0.70710678118654746,
        -0,
        -0,
        0.70710678118654757
      ]
    },
    {
      "children": [
        2
      ],
      "name": "RootNode (model correction matrix)"
    },
    {
      "children": [
        3,
        4,
        5,
        6
      ],
      "name": "cornell_box_multimaterial.obj.cleaner.materialmerger.gles"
    },
    {
      "mesh": 0,
      "name": ""
    },
    {
      "mesh": 1,
      "name": ""
    },
    {
      "mesh": 2,
      "name": ""
    },
    {
      "mesh": 3,
      "name": ""
    }
  ],
  "scene": 0,
  "scenes": [
    {
      "name": "OSG_Scene",
      "nodes": [
        0
      ]
    }
  ]
}

